<mxfile host="65bd71144e">
    <diagram id="uuE1fc8W7FdwztCtyU-b" name="Page-1">
        <mxGraphModel dx="640" dy="540" grid="1" gridSize="10" guides="1" tooltips="1" connect="1" arrows="1" fold="1" page="1" pageScale="1" pageWidth="850" pageHeight="1100" math="0" shadow="0">
            <root>
                <mxCell id="0"/>
                <mxCell id="1" parent="0"/>
                <mxCell id="6" value="Modelo" style="shape=folder;fontStyle=0;spacingTop=10;tabWidth=40;tabHeight=14;tabPosition=left;html=1;fillColor=none;fontColor=#006EAF;strokeColor=#006EAF;" vertex="1" parent="1">
                    <mxGeometry x="230" y="80" width="130" height="80" as="geometry"/>
                </mxCell>
                <mxCell id="7" value="Vista" style="shape=folder;fontStyle=0;spacingTop=10;tabWidth=40;tabHeight=14;tabPosition=left;html=1;fillColor=none;fontColor=#006EAF;strokeColor=#006EAF;" vertex="1" parent="1">
                    <mxGeometry x="70" y="240" width="130" height="80" as="geometry"/>
                </mxCell>
                <mxCell id="8" value="Controlador" style="shape=folder;fontStyle=0;spacingTop=10;tabWidth=40;tabHeight=14;tabPosition=left;html=1;fillColor=none;fontColor=#006EAF;strokeColor=#006EAF;" vertex="1" parent="1">
                    <mxGeometry x="400" y="240" width="130" height="80" as="geometry"/>
                </mxCell>
                <mxCell id="9" value="actualiza" style="endArrow=open;endSize=12;dashed=1;html=1;fontColor=#006EAF;labelBackgroundColor=none;strokeColor=#006EAF;entryX=0;entryY=0;entryDx=130;entryDy=14;entryPerimeter=0;exitX=0.5;exitY=1;exitDx=0;exitDy=0;exitPerimeter=0;" edge="1" parent="1" source="6" target="7">
                    <mxGeometry x="-0.1025" y="25" width="160" relative="1" as="geometry">
                        <mxPoint x="250" y="280" as="sourcePoint"/>
                        <mxPoint x="410" y="280" as="targetPoint"/>
                        <mxPoint as="offset"/>
                    </mxGeometry>
                </mxCell>
                <mxCell id="10" value="manipula" style="endArrow=open;endSize=12;dashed=1;html=1;fontColor=#006EAF;labelBackgroundColor=none;strokeColor=#006EAF;" edge="1" parent="1" source="8" target="6">
                    <mxGeometry x="-0.3817" y="-35" width="160" relative="1" as="geometry">
                        <mxPoint x="272.5" y="170" as="sourcePoint"/>
                        <mxPoint x="207.5" y="250" as="targetPoint"/>
                        <mxPoint as="offset"/>
                    </mxGeometry>
                </mxCell>
                <mxCell id="11" value="envÃ­a acciones del usuario" style="endArrow=open;endSize=12;dashed=1;html=1;fontColor=#006EAF;labelBackgroundColor=none;strokeColor=#006EAF;" edge="1" parent="1" source="8" target="7">
                    <mxGeometry y="11" width="160" relative="1" as="geometry">
                        <mxPoint x="300" y="390" as="sourcePoint"/>
                        <mxPoint x="207.5" y="250" as="targetPoint"/>
                        <mxPoint y="1" as="offset"/>
                    </mxGeometry>
                </mxCell>
                <mxCell id="13" value="pide datos" style="endArrow=open;endSize=12;dashed=1;html=1;fontColor=#006EAF;labelBackgroundColor=none;strokeColor=#006EAF;exitX=0;exitY=0;exitDx=85;exitDy=14;exitPerimeter=0;" edge="1" parent="1" source="7" target="6">
                    <mxGeometry x="-0.0833" y="29" width="160" relative="1" as="geometry">
                        <mxPoint x="280" y="260" as="sourcePoint"/>
                        <mxPoint x="185" y="250" as="targetPoint"/>
                        <mxPoint as="offset"/>
                    </mxGeometry>
                </mxCell>
            </root>
        </mxGraphModel>
    </diagram>
</mxfile>